<?xml version="1.0" encoding="UTF-8" standalone="no"?>
<svg width="2100px" height="2970px" version="1.1" xmlns="http://www.w3.org/2000/svg" xmlns:xlink="http://www.w3.org/1999/xlink" xmlns:mei="http://www.music-encoding.org/ns/mei" overflow="visible">
   <desc>Engraved by Verovio 4.0.1-a99660b</desc>
   <defs>
      <symbol id="E050-1uo35hh" viewBox="0 0 1000 1000" overflow="inherit">
         <path transform="scale(1,-1)" d="M441 -245c-23 -4 -48 -6 -76 -6c-59 0 -102 7 -130 20c-88 42 -150 93 -187 154c-26 44 -43 103 -48 176c0 6 -1 13 -1 19c0 54 15 111 45 170c29 57 65 106 110 148s96 85 153 127c-3 16 -8 46 -13 92c-4 43 -5 73 -5 89c0 117 16 172 69 257c34 54 64 82 89 82 c21 0 43 -30 69 -92s39 -115 41 -159v-15c0 -109 -21 -162 -67 -241c-13 -20 -63 -90 -98 -118c-13 -9 -25 -19 -37 -29l31 -181c8 1 18 2 28 2c58 0 102 -12 133 -35c59 -43 92 -104 98 -184c1 -7 1 -15 1 -22c0 -123 -87 -209 -181 -248c8 -57 17 -110 25 -162 c5 -31 6 -58 6 -80c0 -30 -5 -53 -14 -70c-35 -64 -88 -99 -158 -103c-5 0 -11 -1 -16 -1c-37 0 -72 10 -108 27c-50 24 -77 59 -80 105v11c0 29 7 55 20 76c18 28 45 42 79 44h6c49 0 93 -42 97 -87v-9c0 -51 -34 -86 -105 -106c17 -24 51 -36 102 -36c62 0 116 43 140 85 c9 16 13 41 13 74c0 20 -1 42 -5 67c-8 53 -18 106 -26 159zM461 939c-95 0 -135 -175 -135 -286c0 -24 2 -48 5 -71c50 39 92 82 127 128c40 53 60 100 60 140v8c-4 53 -22 81 -55 81h-2zM406 119l54 -326c73 25 110 78 110 161c0 7 0 15 -1 23c-7 95 -57 142 -151 142h-12 zM382 117c-72 -2 -128 -47 -128 -120v-7c2 -46 43 -99 75 -115c-3 -2 -7 -5 -10 -10c-70 33 -116 88 -123 172v11c0 68 44 126 88 159c23 17 49 29 78 36l-29 170c-21 -13 -52 -37 -92 -73c-50 -44 -86 -84 -109 -119c-45 -69 -67 -130 -67 -182v-13c5 -68 35 -127 93 -176 s125 -73 203 -73c25 0 50 3 75 9c-19 111 -36 221 -54 331z" />
      </symbol>
      <symbol id="E05C-1uo35hh" viewBox="0 0 1000 1000" overflow="inherit">
         <path transform="scale(1,-1)" d="M175 502h43v-456c10 5 18 12 37 29c16 19 22 27 27 38s8 24 14 49c3 22 5 43 5 62c7 -34 31 -54 73 -60c73 18 99 61 100 165c0 46 -10 78 -31 100c-18 23 -41 35 -69 35c-40 0 -65 -32 -66 -84c6 12 11 16 39 24c5 0 2 1 16 -4l17 -10l10 -14l7 -18 c-4 -32 -23 -48 -56 -48c-51 0 -77 33 -77 98c10 35 16 47 30 61c9 9 15 14 23 17c3 3 22 9 27 11l34 3l35 2c123 0 192 -64 192 -178l1 -33c0 -52 -20 -97 -60 -134c-18 -15 -42 -28 -74 -39c-30 -9 -63 -13 -101 -13l-93 -88v-34l93 -88c38 0 71 -4 101 -13 c32 -11 56 -24 74 -39c40 -37 60 -82 60 -134l-3 -33c0 -115 -68 -178 -190 -178l-35 2l-34 3c-5 2 -24 8 -27 11c-26 11 -40 32 -53 78c0 65 26 98 77 98c33 0 52 -16 56 -48l-7 -18l-10 -14l-17 -10c-14 -5 -11 -4 -16 -4c-28 8 -33 12 -39 24c1 -52 26 -84 66 -84 c28 0 51 12 69 35c21 22 31 54 31 100c-1 104 -27 147 -100 165c-42 -6 -66 -26 -73 -60c0 19 -2 40 -5 62c-6 25 -9 38 -14 49s-11 19 -27 38c-19 17 -27 24 -37 29v-456h-43v1004zM0 502h118v-1004h-118v1004z" />
      </symbol>
      <symbol id="E062-1uo35hh" viewBox="0 0 1000 1000" overflow="inherit">
         <path transform="scale(1,-1)" d="M582 -120c0 32 26 58 58 58s58 -26 58 -58s-26 -58 -58 -58s-58 26 -58 58zM582 120c0 32 26 58 58 58s58 -26 58 -58s-26 -58 -58 -58s-58 26 -58 58zM158 96c51 0 73 -14 88 -49l16 -39c0 -17 -2 -30 -7 -40c-3 -11 -10 -21 -19 -31c-17 -18 -49 -43 -84 -43 c-55 0 -77 13 -112 44c-24 21 -35 55 -35 100c0 46 14 81 32 112c30 52 71 79 137 93l36 6l26 2c154 0 235 -68 274 -182c11 -32 18 -68 18 -107c0 -103 -26 -182 -68 -250c-89 -145 -234 -230 -412 -288l-30 -5c-9 0 -14 3 -14 8c3 10 5 11 10 16c35 15 70 30 96 44l78 43 c96 57 162 136 197 258c9 33 17 60 22 100c3 22 5 35 6 39c-7 69 -16 115 -23 140s-4 22 -16 40c-8 12 -19 23 -31 34c-24 21 -62 44 -118 44c-48 0 -84 -8 -113 -28c-28 -19 -42 -44 -42 -73v-16c2 -5 3 -9 4 -11c24 22 52 39 84 39z" />
      </symbol>
      <symbol id="E0A3-1uo35hh" viewBox="0 0 1000 1000" overflow="inherit">
         <path transform="scale(1,-1)" d="M278 64c0 22 -17 39 -43 39c-12 0 -26 -3 -41 -10c-85 -43 -165 -94 -165 -156c5 -25 15 -32 49 -32c67 11 200 95 200 159zM0 -36c0 68 73 174 200 174c66 0 114 -39 114 -97c0 -84 -106 -173 -218 -173c-64 0 -96 32 -96 96z" />
      </symbol>
      <symbol id="E262-1uo35hh" viewBox="0 0 1000 1000" overflow="inherit">
         <path transform="scale(1,-1)" d="M136 186v169h17v-164l44 14v-91l-44 -14v-165l44 12v-91l-44 -13v-155h-17v150l-76 -22v-155h-17v149l-43 -13v90l43 14v167l-43 -14v92l43 13v169h17v-163zM60 73v-167l76 22v168z" />
      </symbol>
      <symbol id="E4A2-1uo35hh" viewBox="0 0 1000 1000" overflow="inherit">
         <path transform="scale(1,-1)" d="M0 48c0 26 22 48 48 48s48 -22 48 -48s-22 -48 -48 -48s-48 22 -48 48z" />
      </symbol>
      <symbol id="E4E4-1uo35hh" viewBox="0 0 1000 1000" overflow="inherit">
         <path transform="scale(1,-1)" d="M0 10v105c0 9 1 10 10 10h280c9 0 10 -1 10 -10v-105c0 -9 -1 -10 -10 -10h-280c-9 0 -10 1 -10 10z" />
      </symbol>
   </defs>
   <style type="text/css">g.page-margin{font-family:Times,serif;} g.ending, g.fing, g.reh, g.tempo{font-weight:bold;} g.dir, g.dynam, g.mNum{font-style:italic;} g.label{font-weight:normal;}</style>
   <svg class="definition-scale" color="black" viewBox="0 0 21000 29700">
      <g class="page-margin" transform="translate(500, 500)">
         <g id="si5trl3" class="system">
            <path d="M1922 1080 L1922 21600" stroke="currentColor" stroke-width="27" />
            <g id="ligrqie" class="labelAbbr">
               <text x="1729" y="1530" text-anchor="end" font-size="0px">
                  <tspan id="t1ibpqq0" class="text">
                     <tspan font-size="405px">Fl.</tspan>
                  </tspan>
               </text>
            </g>
            <g id="l1gkbrrw" class="labelAbbr">
               <text x="1729" y="3330" text-anchor="end" font-size="0px">
                  <tspan id="t1lj4yef" class="text">
                     <tspan font-size="405px">Ob.</tspan>
                  </tspan>
               </text>
            </g>
            <g id="l1mlz9ky" class="labelAbbr">
               <text x="1729" y="5130" text-anchor="end" font-size="0px">
                  <tspan id="tfsq6jb" class="text">
                     <tspan font-size="405px">A Cl.</tspan>
                  </tspan>
               </text>
            </g>
            <g id="lij0s7a" class="labelAbbr">
               <text x="1729" y="6930" text-anchor="end" font-size="0px">
                  <tspan id="tgkgk1u" class="text">
                     <tspan font-size="405px">Bsn.</tspan>
                  </tspan>
               </text>
            </g>
            <g id="l1f6mx78" class="labelAbbr">
               <text x="1729" y="8730" text-anchor="end" font-size="0px">
                  <tspan id="t8vw8jn" class="text">
                     <tspan font-size="405px">B♭ ba Hn.</tspan>
                  </tspan>
               </text>
            </g>
            <g id="lx2jlan" class="labelAbbr">
               <text x="1729" y="10530" text-anchor="end" font-size="0px">
                  <tspan id="t6ufhwp" class="text">
                     <tspan font-size="405px">Vuv.</tspan>
                  </tspan>
               </text>
            </g>
            <g id="ly1jxgq" class="labelAbbr">
               <text x="1729" y="12330" text-anchor="end" font-size="0px">
                  <tspan id="tuudic2" class="text">
                     <tspan font-size="405px">Timp.</tspan>
                  </tspan>
               </text>
            </g>
            <g id="l11ehxnn" class="labelAbbr">
               <text x="1729" y="14130" text-anchor="end" font-size="0px">
                  <tspan id="t1x4c07e" class="text">
                     <tspan font-size="405px">Vlns.</tspan>
                  </tspan>
               </text>
            </g>
            <g id="l1ixe5x4" class="labelAbbr">
               <text x="1729" y="15930" text-anchor="end" font-size="0px">
                  <tspan id="tk5ejs7" class="text">
                     <tspan font-size="405px">Vlns.</tspan>
                  </tspan>
               </text>
            </g>
            <g id="lpei5y4" class="labelAbbr">
               <text x="1729" y="17730" text-anchor="end" font-size="0px">
                  <tspan id="t1xpidfx" class="text">
                     <tspan font-size="405px">Vlas.</tspan>
                  </tspan>
               </text>
            </g>
            <g id="lixzob6" class="labelAbbr">
               <text x="1729" y="19530" text-anchor="end" font-size="0px">
                  <tspan id="t17g5h3a" class="text">
                     <tspan font-size="405px">Vcs.</tspan>
                  </tspan>
               </text>
            </g>
            <g id="llb0016" class="labelAbbr">
               <text x="1729" y="21330" text-anchor="end" font-size="0px">
                  <tspan id="t1um34yi" class="text">
                     <tspan font-size="405px">Cbs.</tspan>
                  </tspan>
               </text>
            </g>
            <g id="p1611u5u" class="pb" />
            <g id="mkrudwp" class="measure">
               <g id="md1cjrk" class="mNum autogenerated">
                  <text x="1909" y="837" text-anchor="middle" font-size="0px">
                     <tspan id="t5ksvpd" class="text">
                        <tspan font-size="324px">3</tspan>
                     </tspan>
                  </text>
               </g>
               <g id="s1r79q9r" class="staff">
                  <path d="M1909 1080 L20000 1080" stroke="currentColor" stroke-width="13" />
                  <path d="M1909 1260 L20000 1260" stroke="currentColor" stroke-width="13" />
                  <path d="M1909 1440 L20000 1440" stroke="currentColor" stroke-width="13" />
                  <path d="M1909 1620 L20000 1620" stroke="currentColor" stroke-width="13" />
                  <path d="M1909 1800 L20000 1800" stroke="currentColor" stroke-width="13" />
                  <g id="c7arlei" class="clef">
                     <use xlink:href="#E050-1uo35hh" x="2026" y="1620" height="720px" width="720px" />
                  </g>
                  <g id="k1bnu4se" class="keySig">
                     <g id="kbos1op" class="keyAccid">
                        <use xlink:href="#E262-1uo35hh" x="2707" y="1080" height="720px" width="720px" />
                     </g>
                     <g id="k1cdv3qe" class="keyAccid">
                        <use xlink:href="#E262-1uo35hh" x="2885" y="1350" height="720px" width="720px" />
                     </g>
                  </g>
                  <g class="ledgerLines above">
                     <path d="M3240 900 L3562 900" stroke="currentColor" stroke-width="22" />
                     <path d="M3240 720 L3562 720" stroke="currentColor" stroke-width="22" />
                  </g>
                  <g id="l1bhdovs" class="layer">
                     <g id="ct9spri" class="chord">
                        <g id="sotlxtd" class="stem">
                           <path d="M3297 655 L3297 1530" stroke="currentColor" stroke-width="18" />
                        </g>
                        <g id="n1ii1yqb" class="note">
                           <g class="notehead">
                              <use xlink:href="#E0A3-1uo35hh" x="3288" y="900" height="720px" width="720px" />
                           </g>
                        </g>
                        <g id="n1jb0f59" class="note">
                           <g class="notehead">
                              <use xlink:href="#E0A3-1uo35hh" x="3288" y="630" height="720px" width="720px" />
                           </g>
                        </g>
                     </g>
                     <g id="rxjlwtv" class="rest">
                        <use xlink:href="#E4E4-1uo35hh" x="11638" y="1440" height="720px" width="720px" />
                        <g class="ledgerLines" />
                     </g>
                  </g>
               </g>
               <g id="sjqzrc6" class="staff">
                  <path d="M1909 2880 L20000 2880" stroke="currentColor" stroke-width="13" />
                  <path d="M1909 3060 L20000 3060" stroke="currentColor" stroke-width="13" />
                  <path d="M1909 3240 L20000 3240" stroke="currentColor" stroke-width="13" />
                  <path d="M1909 3420 L20000 3420" stroke="currentColor" stroke-width="13" />
                  <path d="M1909 3600 L20000 3600" stroke="currentColor" stroke-width="13" />
                  <g id="c1mn66bx" class="clef">
                     <use xlink:href="#E050-1uo35hh" x="2026" y="3420" height="720px" width="720px" />
                  </g>
                  <g id="klvzrmg" class="keySig">
                     <g id="k1jbnx60" class="keyAccid">
                        <use xlink:href="#E262-1uo35hh" x="2707" y="2880" height="720px" width="720px" />
                     </g>
                     <g id="k1ximrld" class="keyAccid">
                        <use xlink:href="#E262-1uo35hh" x="2885" y="3150" height="720px" width="720px" />
                     </g>
                  </g>
                  <g id="lid7e4m" class="layer">
                     <g id="c6z5iuu" class="chord">
                        <g id="skcqd5q" class="stem">
                           <path d="M3297 2905 L3297 3690" stroke="currentColor" stroke-width="18" />
                        </g>
                        <g id="nuoepp1" class="note">
                           <g class="notehead">
                              <use xlink:href="#E0A3-1uo35hh" x="3288" y="3060" height="720px" width="720px" />
                           </g>
                        </g>
                        <g id="nw7aqx2" class="note">
                           <g class="notehead">
                              <use xlink:href="#E0A3-1uo35hh" x="3288" y="2880" height="720px" width="720px" />
                           </g>
                        </g>
                     </g>
                     <g id="r18lyc0g" class="rest">
                        <use xlink:href="#E4E4-1uo35hh" x="11638" y="3240" height="720px" width="720px" />
                        <g class="ledgerLines" />
                     </g>
                  </g>
               </g>
               <g id="s5tpkbt" class="staff">
                  <path d="M1909 4680 L20000 4680" stroke="currentColor" stroke-width="13" />
                  <path d="M1909 4860 L20000 4860" stroke="currentColor" stroke-width="13" />
                  <path d="M1909 5040 L20000 5040" stroke="currentColor" stroke-width="13" />
                  <path d="M1909 5220 L20000 5220" stroke="currentColor" stroke-width="13" />
                  <path d="M1909 5400 L20000 5400" stroke="currentColor" stroke-width="13" />
                  <g id="c1k92f69" class="clef">
                     <use xlink:href="#E050-1uo35hh" x="2026" y="5220" height="720px" width="720px" />
                  </g>
                  <g id="k1c87w6g" class="keySig">
                     <g id="k1efzvm" class="keyAccid">
                        <use xlink:href="#E262-1uo35hh" x="2707" y="4680" height="720px" width="720px" />
                     </g>
                     <g id="k1em5bjj" class="keyAccid">
                        <use xlink:href="#E262-1uo35hh" x="2885" y="4950" height="720px" width="720px" />
                     </g>
                  </g>
                  <g id="l49na7o" class="layer">
                     <g id="cpryvn4" class="chord">
                        <g id="s1u5um3q" class="stem">
                           <path d="M3505 5192 L3505 4380" stroke="currentColor" stroke-width="18" />
                        </g>
                        <g id="nraru1" class="note">
                           <g class="notehead">
                              <use xlink:href="#E0A3-1uo35hh" x="3288" y="5220" height="720px" width="720px" />
                           </g>
                           <g id="afcwd7n" class="accid" />
                        </g>
                        <g id="n2lhl5e" class="note">
                           <g class="notehead">
                              <use xlink:href="#E0A3-1uo35hh" x="3288" y="4950" height="720px" width="720px" />
                           </g>
                        </g>
                     </g>
                     <g id="rysbg9z" class="rest">
                        <use xlink:href="#E4E4-1uo35hh" x="11638" y="5040" height="720px" width="720px" />
                        <g class="ledgerLines" />
                     </g>
                  </g>
               </g>
               <g id="s126wobi" class="staff">
                  <path d="M1909 6480 L20000 6480" stroke="currentColor" stroke-width="13" />
                  <path d="M1909 6660 L20000 6660" stroke="currentColor" stroke-width="13" />
                  <path d="M1909 6840 L20000 6840" stroke="currentColor" stroke-width="13" />
                  <path d="M1909 7020 L20000 7020" stroke="currentColor" stroke-width="13" />
                  <path d="M1909 7200 L20000 7200" stroke="currentColor" stroke-width="13" />
                  <g id="cg0oqhc" class="clef">
                     <use xlink:href="#E062-1uo35hh" x="2026" y="6660" height="720px" width="720px" />
                  </g>
                  <g id="k1us9xtk" class="keySig">
                     <g id="k1dxmhnv" class="keyAccid">
                        <use xlink:href="#E262-1uo35hh" x="2707" y="6660" height="720px" width="720px" />
                     </g>
                     <g id="k113s5rj" class="keyAccid">
                        <use xlink:href="#E262-1uo35hh" x="2885" y="6930" height="720px" width="720px" />
                     </g>
                  </g>
                  <g id="lw51trx" class="layer">
                     <g id="njqw9w1" class="note">
                        <g class="notehead">
                           <use xlink:href="#E0A3-1uo35hh" x="3288" y="6840" height="720px" width="720px" />
                        </g>
                        <g id="s38g0j6" class="stem">
                           <path d="M3297 6865 L3297 7440" stroke="currentColor" stroke-width="18" />
                        </g>
                     </g>
                     <g id="rx3uwe7" class="rest">
                        <use xlink:href="#E4E4-1uo35hh" x="11638" y="6840" height="720px" width="720px" />
                        <g class="ledgerLines" />
                     </g>
                  </g>
               </g>
               <g id="s1semasv" class="staff">
                  <path d="M1909 8280 L20000 8280" stroke="currentColor" stroke-width="13" />
                  <path d="M1909 8460 L20000 8460" stroke="currentColor" stroke-width="13" />
                  <path d="M1909 8640 L20000 8640" stroke="currentColor" stroke-width="13" />
                  <path d="M1909 8820 L20000 8820" stroke="currentColor" stroke-width="13" />
                  <path d="M1909 9000 L20000 9000" stroke="currentColor" stroke-width="13" />
                  <g id="ck8n39s" class="clef">
                     <use xlink:href="#E062-1uo35hh" x="2026" y="8460" height="720px" width="720px" />
                  </g>
                  <g id="kku2rz7" class="keySig">
                     <g id="k15mzvvu" class="keyAccid">
                        <use xlink:href="#E262-1uo35hh" x="2707" y="8460" height="720px" width="720px" />
                     </g>
                     <g id="k11p9zlm" class="keyAccid">
                        <use xlink:href="#E262-1uo35hh" x="2885" y="8730" height="720px" width="720px" />
                     </g>
                  </g>
                  <g class="ledgerLines above">
                     <path d="M3240 8100 L3562 8100" stroke="currentColor" stroke-width="22" />
                     <path d="M3240 7920 L3562 7920" stroke="currentColor" stroke-width="22" />
                  </g>
                  <g id="l1le6fbf" class="layer">
                     <g id="cmfbxfi" class="chord">
                        <g id="s5wlpl1" class="stem">
                           <path d="M3297 7945 L3297 9180" stroke="currentColor" stroke-width="18" />
                        </g>
                        <g id="ncigcdu" class="note">
                           <g class="notehead">
                              <use xlink:href="#E0A3-1uo35hh" x="3288" y="8550" height="720px" width="720px" />
                           </g>
                        </g>
                        <g id="n1lf1jku" class="note">
                           <g class="notehead">
                              <use xlink:href="#E0A3-1uo35hh" x="3288" y="7920" height="720px" width="720px" />
                           </g>
                        </g>
                     </g>
                     <g id="r1ymirnf" class="rest">
                        <use xlink:href="#E4E4-1uo35hh" x="11638" y="8640" height="720px" width="720px" />
                        <g class="ledgerLines" />
                     </g>
                  </g>
               </g>
               <g id="s1aylghv" class="staff">
                  <path d="M1909 10080 L20000 10080" stroke="currentColor" stroke-width="13" />
                  <path d="M1909 10260 L20000 10260" stroke="currentColor" stroke-width="13" />
                  <path d="M1909 10440 L20000 10440" stroke="currentColor" stroke-width="13" />
                  <path d="M1909 10620 L20000 10620" stroke="currentColor" stroke-width="13" />
                  <path d="M1909 10800 L20000 10800" stroke="currentColor" stroke-width="13" />
                  <g id="c1h8gv3k" class="clef">
                     <use xlink:href="#E050-1uo35hh" x="2026" y="10620" height="720px" width="720px" />
                  </g>
                  <g id="kamxvgv" class="keySig">
                     <g id="k1kjykq2" class="keyAccid">
                        <use xlink:href="#E262-1uo35hh" x="2707" y="10080" height="720px" width="720px" />
                     </g>
                     <g id="k1roag3k" class="keyAccid">
                        <use xlink:href="#E262-1uo35hh" x="2885" y="10350" height="720px" width="720px" />
                     </g>
                  </g>
                  <g id="ldxarri" class="layer">
                     <g id="c1h55zed" class="chord">
                        <g id="s1aoc8ie" class="stem">
                           <path d="M3505 10862 L3505 9720" stroke="currentColor" stroke-width="18" />
                        </g>
                        <g id="nmcwghh" class="note">
                           <g class="notehead">
                              <use xlink:href="#E0A3-1uo35hh" x="3288" y="10890" height="720px" width="720px" />
                           </g>
                        </g>
                        <g id="n9hjvas" class="note">
                           <g class="notehead">
                              <use xlink:href="#E0A3-1uo35hh" x="3288" y="10260" height="720px" width="720px" />
                           </g>
                        </g>
                     </g>
                     <g id="r1jalfy3" class="rest">
                        <use xlink:href="#E4E4-1uo35hh" x="11638" y="10440" height="720px" width="720px" />
                        <g class="ledgerLines" />
                     </g>
                  </g>
               </g>
               <g id="sess4nc" class="staff">
                  <path d="M1909 11880 L20000 11880" stroke="currentColor" stroke-width="13" />
                  <path d="M1909 12060 L20000 12060" stroke="currentColor" stroke-width="13" />
                  <path d="M1909 12240 L20000 12240" stroke="currentColor" stroke-width="13" />
                  <path d="M1909 12420 L20000 12420" stroke="currentColor" stroke-width="13" />
                  <path d="M1909 12600 L20000 12600" stroke="currentColor" stroke-width="13" />
                  <g id="c1rnu24a" class="clef">
                     <use xlink:href="#E062-1uo35hh" x="2026" y="12060" height="720px" width="720px" />
                  </g>
                  <g id="k19ompvd" class="keySig">
                     <g id="k1mgl2b6" class="keyAccid">
                        <use xlink:href="#E262-1uo35hh" x="2707" y="12060" height="720px" width="720px" />
                     </g>
                     <g id="kl9t0fv" class="keyAccid">
                        <use xlink:href="#E262-1uo35hh" x="2885" y="12330" height="720px" width="720px" />
                     </g>
                  </g>
                  <g id="lq802vk" class="layer">
                     <g id="n7hp7cv" class="note">
                        <g class="notehead">
                           <use xlink:href="#E0A3-1uo35hh" x="3288" y="12240" height="720px" width="720px" />
                        </g>
                        <g id="s1qu5hgo" class="stem">
                           <path d="M3297 12265 L3297 12840" stroke="currentColor" stroke-width="18" />
                        </g>
                        <g id="amnegk2" class="artic">
                           <use xlink:href="#E4A2-1uo35hh" x="3367" y="12004" height="720px" width="720px" />
                        </g>
                     </g>
                     <g id="r1a0m1wy" class="rest">
                        <use xlink:href="#E4E4-1uo35hh" x="11638" y="12240" height="720px" width="720px" />
                        <g class="ledgerLines" />
                     </g>
                  </g>
               </g>
               <g id="sw43klg" class="staff">
                  <path d="M1909 13680 L20000 13680" stroke="currentColor" stroke-width="13" />
                  <path d="M1909 13860 L20000 13860" stroke="currentColor" stroke-width="13" />
                  <path d="M1909 14040 L20000 14040" stroke="currentColor" stroke-width="13" />
                  <path d="M1909 14220 L20000 14220" stroke="currentColor" stroke-width="13" />
                  <path d="M1909 14400 L20000 14400" stroke="currentColor" stroke-width="13" />
                  <g id="cktpctz" class="clef">
                     <use xlink:href="#E050-1uo35hh" x="2026" y="14220" height="720px" width="720px" />
                  </g>
                  <g id="kx8dy4e" class="keySig">
                     <g id="k10zwi1l" class="keyAccid">
                        <use xlink:href="#E262-1uo35hh" x="2707" y="13680" height="720px" width="720px" />
                     </g>
                     <g id="k1futcc3" class="keyAccid">
                        <use xlink:href="#E262-1uo35hh" x="2885" y="13950" height="720px" width="720px" />
                     </g>
                  </g>
                  <g class="ledgerLines above">
                     <path d="M3240 13500 L3562 13500" stroke="currentColor" stroke-width="22" />
                     <path d="M3240 13320 L3562 13320" stroke="currentColor" stroke-width="22" />
                  </g>
                  <g id="l16suen0" class="layer">
                     <g id="cbxnw4d" class="chord">
                        <g id="s1b8e9s3" class="stem">
                           <path d="M3297 13255 L3297 14490" stroke="currentColor" stroke-width="18" />
                        </g>
                        <g id="nrdcvtg" class="note">
                           <g class="notehead">
                              <use xlink:href="#E0A3-1uo35hh" x="3288" y="13860" height="720px" width="720px" />
                           </g>
                        </g>
                        <g id="n1svfofs" class="note">
                           <g class="notehead">
                              <use xlink:href="#E0A3-1uo35hh" x="3288" y="13230" height="720px" width="720px" />
                           </g>
                        </g>
                     </g>
                     <g id="r396nq3" class="rest">
                        <use xlink:href="#E4E4-1uo35hh" x="11638" y="14040" height="720px" width="720px" />
                        <g class="ledgerLines" />
                     </g>
                  </g>
               </g>
               <g id="s12pjp66" class="staff">
                  <path d="M1909 15480 L20000 15480" stroke="currentColor" stroke-width="13" />
                  <path d="M1909 15660 L20000 15660" stroke="currentColor" stroke-width="13" />
                  <path d="M1909 15840 L20000 15840" stroke="currentColor" stroke-width="13" />
                  <path d="M1909 16020 L20000 16020" stroke="currentColor" stroke-width="13" />
                  <path d="M1909 16200 L20000 16200" stroke="currentColor" stroke-width="13" />
                  <g id="ccoc2v3" class="clef">
                     <use xlink:href="#E050-1uo35hh" x="2026" y="16020" height="720px" width="720px" />
                  </g>
                  <g id="kccylsp" class="keySig">
                     <g id="krxc228" class="keyAccid">
                        <use xlink:href="#E262-1uo35hh" x="2707" y="15480" height="720px" width="720px" />
                     </g>
                     <g id="k1cwpe5l" class="keyAccid">
                        <use xlink:href="#E262-1uo35hh" x="2885" y="15750" height="720px" width="720px" />
                     </g>
                  </g>
                  <g id="l101zfwe" class="layer">
                     <g id="c9fz4i1" class="chord">
                        <g id="s1pt5hmb" class="stem">
                           <path d="M3297 15505 L3297 16500" stroke="currentColor" stroke-width="18" />
                        </g>
                        <g id="nksjhxk" class="note">
                           <g class="notehead">
                              <use xlink:href="#E0A3-1uo35hh" x="3288" y="15930" height="720px" width="720px" />
                           </g>
                        </g>
                        <g id="n13bpp" class="note">
                           <g class="notehead">
                              <use xlink:href="#E0A3-1uo35hh" x="3288" y="15480" height="720px" width="720px" />
                           </g>
                        </g>
                     </g>
                     <g id="r1xlsp7p" class="rest">
                        <use xlink:href="#E4E4-1uo35hh" x="11638" y="15840" height="720px" width="720px" />
                        <g class="ledgerLines" />
                     </g>
                  </g>
               </g>
               <g id="s95d9gv" class="staff">
                  <path d="M1909 17280 L20000 17280" stroke="currentColor" stroke-width="13" />
                  <path d="M1909 17460 L20000 17460" stroke="currentColor" stroke-width="13" />
                  <path d="M1909 17640 L20000 17640" stroke="currentColor" stroke-width="13" />
                  <path d="M1909 17820 L20000 17820" stroke="currentColor" stroke-width="13" />
                  <path d="M1909 18000 L20000 18000" stroke="currentColor" stroke-width="13" />
                  <g id="c1yxryv4" class="clef">
                     <use xlink:href="#E05C-1uo35hh" x="2026" y="17640" height="720px" width="720px" />
                  </g>
                  <g id="k1rpvkn6" class="keySig">
                     <g id="k19z8pkd" class="keyAccid">
                        <use xlink:href="#E262-1uo35hh" x="2707" y="17370" height="720px" width="720px" />
                     </g>
                     <g id="kpei2kb" class="keyAccid">
                        <use xlink:href="#E262-1uo35hh" x="2885" y="17640" height="720px" width="720px" />
                     </g>
                  </g>
                  <g id="l1f6lte1" class="layer">
                     <g id="n1u80yyl" class="note">
                        <g class="notehead">
                           <use xlink:href="#E0A3-1uo35hh" x="3288" y="17550" height="720px" width="720px" />
                        </g>
                        <g id="s18whrwx" class="stem">
                           <path d="M3297 17575 L3297 18180" stroke="currentColor" stroke-width="18" />
                        </g>
                     </g>
                     <g id="rsh5342" class="rest">
                        <use xlink:href="#E4E4-1uo35hh" x="11638" y="17640" height="720px" width="720px" />
                        <g class="ledgerLines" />
                     </g>
                  </g>
               </g>
               <g id="s1n6jie2" class="staff">
                  <path d="M1909 19080 L20000 19080" stroke="currentColor" stroke-width="13" />
                  <path d="M1909 19260 L20000 19260" stroke="currentColor" stroke-width="13" />
                  <path d="M1909 19440 L20000 19440" stroke="currentColor" stroke-width="13" />
                  <path d="M1909 19620 L20000 19620" stroke="currentColor" stroke-width="13" />
                  <path d="M1909 19800 L20000 19800" stroke="currentColor" stroke-width="13" />
                  <g id="c1827mc5" class="clef">
                     <use xlink:href="#E062-1uo35hh" x="2026" y="19260" height="720px" width="720px" />
                  </g>
                  <g id="kjjftl" class="keySig">
                     <g id="ki4j6t5" class="keyAccid">
                        <use xlink:href="#E262-1uo35hh" x="2707" y="19260" height="720px" width="720px" />
                     </g>
                     <g id="k1appy67" class="keyAccid">
                        <use xlink:href="#E262-1uo35hh" x="2885" y="19530" height="720px" width="720px" />
                     </g>
                  </g>
                  <g id="lk3eopm" class="layer">
                     <g id="n1glg3g0" class="note">
                        <g class="notehead">
                           <use xlink:href="#E0A3-1uo35hh" x="3288" y="19440" height="720px" width="720px" />
                        </g>
                        <g id="sexo28e" class="stem">
                           <path d="M3297 19465 L3297 20040" stroke="currentColor" stroke-width="18" />
                        </g>
                     </g>
                     <g id="r1m3bx9r" class="rest">
                        <use xlink:href="#E4E4-1uo35hh" x="11638" y="19440" height="720px" width="720px" />
                        <g class="ledgerLines" />
                     </g>
                  </g>
               </g>
               <g id="sbcsq2x" class="staff">
                  <path d="M1909 20880 L20000 20880" stroke="currentColor" stroke-width="13" />
                  <path d="M1909 21060 L20000 21060" stroke="currentColor" stroke-width="13" />
                  <path d="M1909 21240 L20000 21240" stroke="currentColor" stroke-width="13" />
                  <path d="M1909 21420 L20000 21420" stroke="currentColor" stroke-width="13" />
                  <path d="M1909 21600 L20000 21600" stroke="currentColor" stroke-width="13" />
                  <g id="c1mersf0" class="clef">
                     <use xlink:href="#E062-1uo35hh" x="2026" y="21060" height="720px" width="720px" />
                  </g>
                  <g id="kkxfkez" class="keySig">
                     <g id="k1t8f057" class="keyAccid">
                        <use xlink:href="#E262-1uo35hh" x="2707" y="21060" height="720px" width="720px" />
                     </g>
                     <g id="k5aeflq" class="keyAccid">
                        <use xlink:href="#E262-1uo35hh" x="2885" y="21330" height="720px" width="720px" />
                     </g>
                  </g>
                  <g id="l4nw6uo" class="layer">
                     <g id="n1y5fr42" class="note">
                        <g class="notehead">
                           <use xlink:href="#E0A3-1uo35hh" x="3288" y="21240" height="720px" width="720px" />
                        </g>
                        <g id="ssowuyf" class="stem">
                           <path d="M3297 21265 L3297 21840" stroke="currentColor" stroke-width="18" />
                        </g>
                     </g>
                     <g id="r1ciu8sw" class="rest">
                        <use xlink:href="#E4E4-1uo35hh" x="11638" y="21240" height="720px" width="720px" />
                        <g class="ledgerLines" />
                     </g>
                  </g>
               </g>
               <g id="bged6ht" class="barLine">
                  <path d="M19987 1080 L19987 1800" stroke="currentColor" stroke-width="27" />
                  <path d="M19987 2880 L19987 3600" stroke="currentColor" stroke-width="27" />
                  <path d="M19987 4680 L19987 5400" stroke="currentColor" stroke-width="27" />
                  <path d="M19987 6480 L19987 7200" stroke="currentColor" stroke-width="27" />
                  <path d="M19987 8280 L19987 9000" stroke="currentColor" stroke-width="27" />
                  <path d="M19987 10080 L19987 10800" stroke="currentColor" stroke-width="27" />
                  <path d="M19987 11880 L19987 12600" stroke="currentColor" stroke-width="27" />
                  <path d="M19987 13680 L19987 14400" stroke="currentColor" stroke-width="27" />
                  <path d="M19987 15480 L19987 16200" stroke="currentColor" stroke-width="27" />
                  <path d="M19987 17280 L19987 18000" stroke="currentColor" stroke-width="27" />
                  <path d="M19987 19080 L19987 19800" stroke="currentColor" stroke-width="27" />
                  <path d="M19987 20880 L19987 21600" stroke="currentColor" stroke-width="27" />
               </g>
            </g>
            <g class="tie id-t1sd6x38 spanning">
               <path d="M3116,945 C3165,1052 3190,1052 3243,945 C3227,1099 3128,1099 3116,945" stroke="currentColor" stroke-linecap="round" stroke-linejoin="round" stroke-width="9" />
            </g>
            <g class="tie id-t12uk6h7 spanning">
               <path d="M3116,585 C3128,432 3227,432 3243,585 C3190,479 3165,479 3116,585" stroke="currentColor" stroke-linecap="round" stroke-linejoin="round" stroke-width="9" />
            </g>
            <g class="tie id-t7shdgc spanning">
               <path d="M3116,3105 C3165,3212 3190,3212 3243,3105 C3227,3259 3128,3259 3116,3105" stroke="currentColor" stroke-linecap="round" stroke-linejoin="round" stroke-width="9" />
            </g>
            <g class="tie id-tf85chs spanning">
               <path d="M3116,2835 C3128,2682 3227,2682 3243,2835 C3190,2729 3165,2729 3116,2835" stroke="currentColor" stroke-linecap="round" stroke-linejoin="round" stroke-width="9" />
            </g>
            <g class="tie id-t1fcwzie spanning">
               <path d="M3116,5265 C3165,5372 3190,5372 3243,5265 C3227,5419 3128,5419 3116,5265" stroke="currentColor" stroke-linecap="round" stroke-linejoin="round" stroke-width="9" />
            </g>
            <g class="tie id-t1550drm spanning">
               <path d="M3116,4905 C3128,4752 3227,4752 3243,4905 C3190,4799 3165,4799 3116,4905" stroke="currentColor" stroke-linecap="round" stroke-linejoin="round" stroke-width="9" />
            </g>
            <g class="tie id-t18b99ls spanning">
               <path d="M3116,8595 C3165,8702 3190,8702 3243,8595 C3227,8749 3128,8749 3116,8595" stroke="currentColor" stroke-linecap="round" stroke-linejoin="round" stroke-width="9" />
            </g>
            <g class="tie id-tns0s8z spanning">
               <path d="M3116,7875 C3128,7722 3227,7722 3243,7875 C3190,7769 3165,7769 3116,7875" stroke="currentColor" stroke-linecap="round" stroke-linejoin="round" stroke-width="9" />
            </g>
            <g class="tie id-t1lssiif spanning">
               <path d="M3116,10935 C3165,11042 3190,11042 3243,10935 C3227,11089 3128,11089 3116,10935" stroke="currentColor" stroke-linecap="round" stroke-linejoin="round" stroke-width="9" />
            </g>
            <g class="tie id-tgvkg1t spanning">
               <path d="M3116,10215 C3128,10062 3227,10062 3243,10215 C3190,10109 3165,10109 3116,10215" stroke="currentColor" stroke-linecap="round" stroke-linejoin="round" stroke-width="9" />
            </g>
            <g class="tie id-t1254w67 spanning">
               <path d="M3116,13905 C3165,14012 3190,14012 3243,13905 C3227,14059 3128,14059 3116,13905" stroke="currentColor" stroke-linecap="round" stroke-linejoin="round" stroke-width="9" />
            </g>
            <g class="tie id-thmrcqh spanning">
               <path d="M3116,13185 C3128,13032 3227,13032 3243,13185 C3190,13079 3165,13079 3116,13185" stroke="currentColor" stroke-linecap="round" stroke-linejoin="round" stroke-width="9" />
            </g>
            <g class="tie id-t16pj4rp spanning">
               <path d="M3116,15975 C3165,16082 3190,16082 3243,15975 C3227,16129 3128,16129 3116,15975" stroke="currentColor" stroke-linecap="round" stroke-linejoin="round" stroke-width="9" />
            </g>
            <g class="tie id-t1nl7mj8 spanning">
               <path d="M3116,15435 C3128,15282 3227,15282 3243,15435 C3190,15329 3165,15329 3116,15435" stroke="currentColor" stroke-linecap="round" stroke-linejoin="round" stroke-width="9" />
            </g>
         </g>
         <g id="pc0bs4h" class="pgHead autogenerated">
            <text font-size="0px">
               <tspan id="r1ubrep9" class="rend" x="10000" y="220" text-anchor="middle">
                  <tspan id="t1tqaovl" class="text">
                     <tspan font-size="324px">– </tspan>
                  </tspan>
                  <tspan id="n1r45edg" class="num">
                     <title class="labelAttr">page</title>
                     <tspan id="t1bzkehk" class="text">
                        <tspan font-size="324px">3</tspan>
                     </tspan>
                  </tspan>
                  <tspan id="t183jn2d" class="text">
                     <tspan font-size="324px"> –</tspan>
                  </tspan>
               </tspan>
            </text>
         </g>
         <g id="p1vk89v7" class="pgFoot autogenerated">
            <g id="fu4hhau" class="fig">
               <g class="svg" transform="translate(7750, 28099) scale(10.000000, 10.000000)">
                  <g>
                     <path fill="#00000" d="M 17.11278,49.26451 V 10.367554 h 12.696511 c 3.288815,7.336676 6.71267,14.610456 10.127281,21.888976 3.419998,-7.484684 6.255515,-14.204887 9.58887,-21.909915 2.436207,0.103726 4.316952,0.08453 6.484294,-0.05808 V 49.264423 H 50.274275 C 50.145222,38.35639 50.016136,27.448368 49.887066,16.540329 45.003488,27.315459 39.967448,38.433564 35.083854,49.208695 34.678996,49.343717 34.426583,49.135619 34.021726,49.270644 29.46588,39.330716 24.910049,29.390805 20.354201,19.450876 20.224341,29.388756 20.09461,39.326619 19.964815,49.264497 H 17.11278 Z M 36.754144,39.324695 C 32.721221,30.512695 28.6883,21.700679 24.655394,12.888662 22.530527,12.750737 22.656775,12.71031 20.714356,12.813974 v 0.966497 c 4.612938,9.99784 9.609439,20.748709 13.87298,30.081745 0.722248,-1.512523 1.444528,-3.025014 2.166808,-4.537521 z m 25.738417,9.939815 c 0,-12.965651 0,-25.931305 0,-38.896956 10.084388,0 20.168791,0 30.253178,0 0,0.960416 0,1.920849 0,2.881265 -6.482825,0 -12.965652,0 -19.448478,0 0,4.802097 0,9.604178 0,14.406277 5.52241,0 11.044819,0 16.567229,0 0,0.960415 0,1.920832 0,2.881248 -5.52241,0 -11.044819,0 -16.567229,0 0,5.282306 0,10.564611 0,15.846917 6.963035,0 13.926068,0 20.889103,0 0,0.960416 0,1.920832 0,2.881249 -10.564597,0 -21.129207,0 -31.693803,0 z m 4.321874,-2.160937 c 0,-11.765131 0,-23.530263 0,-35.295394 -0.720312,0 -1.440625,0 -2.160937,0 0,11.765131 0,23.530263 0,35.295394 0.720312,0 1.440625,0 2.160937,0 z m 32.41413,2.160937 c 0,-12.965651 0,-25.931305 0,-38.896956 2.401045,0 4.802095,0 7.203135,0 0,12.965651 0,25.931305 0,38.896956 -2.40104,0 -4.80209,0 -7.203135,0 z m 2.881265,-2.160937 c 0,-11.765131 0,-23.530263 0,-35.295394 -0.72031,0 -1.44064,0 -2.160953,0 0,11.765131 0,23.530263 0,35.295394 0.720313,0 1.440643,0 2.160953,0 z" />
                     <path fill="#00000" d="m 346.3,6.7 c -3.1,0.5 -4.9,4.4 -2.7,6.8 1.2,1.4 2.7,2.4 4.1,3.5 -2.4,5.3 -7.7,8.3 -11.9,12.1 -3.7,2.8 -7,6.2 -9.7,9.9 -2.2,-0.8 -0.3,-6.8 -0.6,-9.5 0.1,-3.1 0.7,-6.4 2.9,-8.7 1.3,-1.9 3,-3.5 4.5,-5.2 1.2,-3.4 -3.2,-4.9 -5.8,-4.6 -7.3,-0.5 -14.6,2 -20,6.8 -5,4.6 -10,10.1 -11.5,17 -0.9,3.5 -0.2,7.5 2.8,9.9 2.5,2.8 7.4,2.9 9.8,-0.2 1.7,-2.3 3.2,-4.8 3.8,-7.6 -0.1,-2.6 -4.4,-2.3 -4.3,0.2 1.2,2.4 -0.9,4.7 -2.7,6.2 -1.7,0.9 -4.7,0.7 -4.8,-1.7 -1,-5.8 2.1,-11.3 5.2,-16.1 4,-5.8 9.8,-11.2 17.2,-11.8 1.6,0 8.1,-1.2 6.8,1.4 -2.8,2.8 -5.6,6.1 -6,10.3 -1.6,7.7 0.1,15.7 -2.3,23.2 -1.1,3.9 2,2.6 2.5,0.2 3.3,-7.4 8.9,-13.4 15.1,-18.5 4.2,-3.9 9.5,-7.1 11.9,-12.6 1.3,-3.6 1.2,-9 -2.7,-10.9 -0.6,-0.2 -1.2,-0.3 -1.8,-0.3 z m 66,14.5 c -2,0.8 -1.8,4.9 0.8,4.4 3.4,0.4 2.9,-6.2 -0.8,-4.4 z m 0.6,7.3 c -1.3,0.5 -7.6,0.5 -5.4,2.2 4,-0.3 0.7,4.5 0.6,6.7 -0.4,2.9 -2.4,5.9 -1.2,8.8 2.7,1.7 5.6,-0.8 6.8,-3.2 1.6,-1.4 -0.5,-3 -1.2,-0.9 -0.4,0.8 -2.4,3.5 -2.6,1.8 1.1,-5 2.7,-9.9 3.9,-14.9 l -0.1,-0.5 h -0.9 z m -65.1,0.2 c -6.5,1.6 -10.5,9.5 -8.2,15.7 2.1,3.4 7.4,2.9 10.1,0.4 2,-0.2 3.6,-5.3 1,-3.4 -1.4,2 -4,4.2 -6.5,2.8 -2.2,-1.9 -1.9,-5.7 1.7,-5.3 3.1,-0.9 6.9,-2.1 8.1,-5.5 0.9,-2.7 -1.6,-5.2 -4.3,-4.8 h -1.1 -0.7 z m 13.6,0 c -2.2,0 -8.5,1.8 -2.9,2.3 0.9,1.9 -1,4.9 -1.1,7.2 -0.5,2.9 -1.4,5.7 -1.7,8.7 3.7,0.7 3.8,-2.6 4.4,-5.3 0.9,-3.3 1.6,-7 4.1,-9.5 2.4,1.6 6.8,-0.7 3.7,-3.4 -2.9,-0.5 -4.8,2.4 -6.2,4.3 0,-1.2 2.4,-5 -0.2,-4.3 z m 15.8,0 c -6.4,1.3 -9.6,9.1 -7.7,14.9 1.9,4 7.7,3.9 11,1.7 4.1,-3 6,-8.9 4.4,-13.7 -1.3,-3 -4.8,-3.2 -7.6,-3 z m 17,0 c -2.3,0 -8.8,1.9 -3,2.4 0.4,2.5 -1,5.7 -1.4,8.4 -0.7,2.4 -1.8,7.5 2.1,7.2 3.8,-0.1 6.5,-3.5 8.5,-6.3 2,-3.2 4.5,-7 3.3,-10.9 -3.7,-3 -3.6,2.6 -3.1,5.1 -0.7,3.8 -2.7,7.9 -6.2,9.8 -3.6,0.6 -1,-4.3 -0.8,-6.1 0.6,-3.2 1.6,-6.3 1.9,-9.5 -0.4,0 -0.8,0 -1.1,0 z m 30.6,0 c -6.3,1.2 -9.5,8.9 -7.8,14.7 1.5,4 7.2,4.2 10.5,2.4 4.6,-2.8 6.6,-9.3 4.8,-14.3 -1.4,-2.8 -4.8,-3 -7.5,-2.8 z m -75.4,1.7 c 2.1,1.5 0.2,4.7 -1.6,5.7 -1.1,0.4 -5.5,3.4 -4.6,0.7 0.8,-2.7 2.2,-6.2 5.3,-6.6 l 0.9,0.1 z m 30.8,0 c 2.6,1.5 1.3,5.2 0.8,7.6 -0.8,2.7 -1.9,5.9 -4.7,7.1 -5.1,0.8 -4,-5.8 -2.8,-8.8 1,-2.8 3,-6.8 6.7,-5.8 z m 47.1,-0.1 c 2.9,0.7 2,4.7 1.5,6.8 -0.7,3 -1.8,6.7 -5,8 -4.7,0.8 -4,-5.1 -3,-7.9 0.9,-3 2.7,-7.3 6.5,-6.8 z m -88.1,5.9 c -0.3,1.3 0.9,-0.6 0,0 z m -1.1,2.4 c -0.2,0.5 0.5,-0.1 0,0 z m -1.3,4.5 c -0.3,1.3 0.8,-0.2 0,0 z" />
                     <text y="41" x="201" fill="#00000" style="font-style:italic;font-weight:normal;font-size:30px;line-height:125%;font-family:Times;text-anchor:middle" xml:space="preserve">engraved with</text>
                  </g>
               </g>
            </g>
         </g>
      </g>
   </svg>
</svg>
